HIERARCHY
ROOT root
{
	OFFSET	0	13.1	24.9
	CHANNELS 6  Xposition Yposition Zposition Xrotation Yrotation Zrotation
	JOINT spine_1
	{
		OFFSET	0	9.99999	0
		CHANNELS 3  Xrotation Yrotation Zrotation
		JOINT spine_2
		{
			OFFSET	0	112	-10
			CHANNELS 3  Xrotation Yrotation Zrotation
			JOINT spine_3
			{
				OFFSET	0	206.5	19.3
				CHANNELS 3  Xrotation Yrotation Zrotation
				JOINT spine_4
				{
					OFFSET	0	110.4	14.6
					CHANNELS 3  Xrotation Yrotation Zrotation
					JOINT neck_1
					{
						OFFSET	0	71.8	-50.3
						CHANNELS 3  Xrotation Yrotation Zrotation
						JOINT neck_2
						{
							OFFSET	0	86.2	-25.8
							CHANNELS 3  Xrotation Yrotation Zrotation
							JOINT head_ee
							{
								OFFSET	0	179.8	-8.7
								CHANNELS 3  Xrotation Yrotation Zrotation
								End Site
								{
									OFFSET	1	0	0
								}
							}
						}
					}
					JOINT left_clavicle
					{
						OFFSET	-43.2	22.4	-70.8
						CHANNELS 3  Xrotation Yrotation Zrotation
						JOINT left_shoulder
						{
							OFFSET	-93.9	-5.79999	48.7
							CHANNELS 3  Xrotation Yrotation Zrotation
							JOINT left_elbow
							{
								OFFSET	-291.4	-30.8	15.2
								CHANNELS 3  Xrotation Yrotation Zrotation
								JOINT left_lowarm_twist
								{
									OFFSET	-110.7	-3.89999	13.6
									CHANNELS 3  Xrotation Yrotation Zrotation
									JOINT left_hand
									{
										OFFSET	-110.7	-3.89999	13.6
										CHANNELS 3  Xrotation Yrotation Zrotation
										JOINT left_ee
										{
											OFFSET	-80.8	-5.10001	12.1
											CHANNELS 3  Xrotation Yrotation Zrotation
											End Site
											{
												OFFSET	1	0	0
											}
										}
									}
								}
							}
						}
					}
					JOINT right_clavicle
					{
						OFFSET	43.2	22.4	-70.8
						CHANNELS 3  Xrotation Yrotation Zrotation
						JOINT right_shoulder
						{
							OFFSET	93.9	-5.79999	48.7
							CHANNELS 3  Xrotation Yrotation Zrotation
							JOINT right_elbow
							{
								OFFSET	291.4	-30.8	15.2
								CHANNELS 3  Xrotation Yrotation Zrotation
								JOINT right_lowarm_twist
								{
									OFFSET	110.7	-3.89999	13.6
									CHANNELS 3  Xrotation Yrotation Zrotation
									JOINT right_hand
									{
										OFFSET	110.7	-3.89999	13.6
										CHANNELS 3  Xrotation Yrotation Zrotation
										JOINT right_ee
										{
											OFFSET	80.8	-5.10001	12.1
											CHANNELS 3  Xrotation Yrotation Zrotation
											End Site
											{
												OFFSET	1	0	0
											}
										}
									}
								}
							}
						}
					}
				}
			}
		}
	}
	JOINT left_hip
	{
		OFFSET	-82.8	-127.5	0.300001
		CHANNELS 3  Xrotation Yrotation Zrotation
		JOINT left_knee
		{
			OFFSET	-28.2	-396.7	2.2
			CHANNELS 3  Xrotation Yrotation Zrotation
			JOINT left_ankle
			{
				OFFSET	-11.7	-411.3	35.4
				CHANNELS 3  Xrotation Yrotation Zrotation
				JOINT left_toes
				{
					OFFSET	0	-60	-88.6
					CHANNELS 3  Xrotation Yrotation Zrotation
					JOINT left_foot_ee
					{
						OFFSET	-22.5	-16.5	-42.2
						CHANNELS 3  Xrotation Yrotation Zrotation
						End Site
						{
							OFFSET	1	0	0
						}
					}
				}
			}
		}
	}
	JOINT right_hip
	{
		OFFSET	82.8	-127.5	0.300001
		CHANNELS 3  Xrotation Yrotation Zrotation
		JOINT right_knee
		{
			OFFSET	28.2	-396.7	2.2
			CHANNELS 3  Xrotation Yrotation Zrotation
			JOINT right_ankle
			{
				OFFSET	11.7	-411.3	35.4
				CHANNELS 3  Xrotation Yrotation Zrotation
				JOINT right_toes
				{
					OFFSET	0	-60	-88.6
					CHANNELS 3  Xrotation Yrotation Zrotation
					JOINT right_foot_ee
					{
						OFFSET	22.5	-16.5	-42.2
						CHANNELS 3  Xrotation Yrotation Zrotation
						End Site
						{
							OFFSET	1	0	0
						}
					}
				}
			}
		}
	}
}
MOTION
Frames: 8
Frame Time: 0.02
2768.85720302 685.889 -1645.7754734 21.3513270608 61.2231573446 -20.3931895266 -2.95216 0.369404 0.898161 -2.95176 0.311505 0.919845 -2.94602 0.0615079 0.969205 -2.94726 0.213797 0.947331 -11.5081 20.1531 -0.449648 -12.397 38.4917 5.58606 -0.0 0.0 -0.0 4.07239 8.44658 8.18104 -2.92327 -28.5962 51.8631 1.4459 -35.6103 0.464393 38.3828 -0.267829 -4.80535 0.406527 19.9479 10.5051 -0.0 0.0 -0.0 9.18626 11.5919 -18.0239 -4.78037 18.5148 -62.1473 0.494215 13.7567 -0.0596177 30.2234 -0.0593981 3.81593 4.85334 25.2439 -21.1009 0.0 0.0 0.0 -5.56078 -15.9279 8.42043 -17.2742 0.318129 2.62177 30.8969 24.3565 -4.19439 -3.49612 0.0 0.0 -0.0 0.0 -0.0 0.747299 27.7594 -5.50165 -50.6316 1.27762 -7.41641 39.0173 -10.2825 4.79125 7.0407 -0.0 -0.0 0.0 0.0 0.0 
2760.91756103 692.215 -1612.11112731 22.7660649587 63.6222277724 -22.4294821525 -3.1099 0.438582 1.05647 -3.10935 0.370472 1.08223 -3.10129 0.0731195 1.14154 -3.10302 0.252476 1.11567 -12.528 20.9993 2.28514 -13.6037 38.5265 8.86292 -0.0 0.0 -0.0 3.89946 8.1356 7.86408 0.432862 -29.8832 51.5642 1.50185 -36.6458 0.497381 38.0279 -0.250682 -4.76334 0.29281 20.5926 10.0514 -0.0 0.0 -0.0 8.88375 11.77 -17.3606 -5.05887 18.6491 -62.1839 0.472168 13.1649 -0.0544855 30.6342 -0.04632 3.86677 4.80249 24.7644 -21.0454 0.0 0.0 0.0 -6.62824 -14.3155 8.74924 -14.6497 0.320992 2.21915 31.7602 24.1464 -4.28644 -3.29504 0.0 0.0 -0.0 0.0 -0.0 3.31095 27.7496 -5.82341 -47.4405 1.00664 -7.00663 38.1456 -10.8356 4.71628 6.91187 -0.0 -0.0 0.0 0.0 0.0 
2763.75156564 692.215 -1594.32424539 24.8701267714 65.8705708316 -24.7553760474 -3.1099 0.438582 1.05647 -3.10935 0.370472 1.08223 -3.10129 0.0731195 1.14154 -3.10302 0.252476 1.11567 -12.528 20.9993 2.28514 -13.6037 38.5265 8.86292 -0.0 0.0 -0.0 3.89946 8.1356 7.86408 0.432862 -29.8832 51.5642 1.50185 -36.6458 0.497381 38.0279 -0.250682 -4.76334 0.29281 20.5926 10.0514 -0.0 0.0 -0.0 8.88375 11.77 -17.3606 -5.05887 18.6491 -62.1839 0.472168 13.1649 -0.0544855 30.6342 -0.04632 3.86677 4.80249 24.7644 -21.0454 0.0 0.0 0.0 -6.62824 -14.3155 8.74924 -14.6497 0.320992 2.21915 31.7602 24.1464 -4.28644 -3.29504 0.0 0.0 -0.0 0.0 -0.0 3.31095 27.7496 -5.82341 -47.4405 1.00664 -7.00663 38.1456 -10.8356 4.71628 6.91187 -0.0 -0.0 0.0 0.0 0.0 
2761.79594417 702.726 -1564.79208058 25.7978083281 68.0951934437 -25.9641607763 -3.21439 0.420547 0.931954 -3.21398 0.360395 0.956823 -3.2071 0.0944643 1.01807 -3.20846 0.254056 0.990376 -13.5976 21.437 4.26804 -14.8185 38.327 11.2882 -0.0 0.0 -0.0 3.7958 7.81753 7.66834 2.63364 -30.4978 51.4068 1.56513 -37.7845 0.535658 37.7791 -0.238816 -4.73382 0.21656 20.9009 9.70616 -0.0 0.0 -0.0 8.65843 11.9196 -16.8667 -5.47958 18.6394 -61.7868 0.455011 12.7023 -0.0506453 30.9155 -0.0371545 3.90153 4.76738 24.4155 -21.0157 0.0 0.0 0.0 -7.81734 -13.3079 8.93827 -11.816 0.303382 1.78477 32.1393 23.914 -4.32291 -3.25171 0.0 0.0 -0.0 0.0 -0.0 6.84071 27.47 -7.32238 -44.3561 0.766896 -6.59704 37.5132 -11.3626 4.66205 6.83219 -0.0 -0.0 0.0 0.0 0.0 
2730.39948212 708.695 -1535.84400077 33.3807409988 69.5944944888 -33.5531372628 -4.19116 0.348451 0.742173 -4.1909 0.30052 0.762841 -4.18625 0.0740822 0.816544 -4.18712 0.202106 0.794599 -15.7481 21.8199 7.53121 -17.1612 37.5602 15.2559 -0.0 0.0 -0.0 3.73498 8.09966 7.56999 7.93473 -31.2265 49.6927 1.97747 -44.4041 0.807142 37.2885 -0.215791 -4.67546 0.191252 19.9404 9.20118 -0.0 0.0 -0.0 7.7997 11.9765 -15.0112 -7.12039 18.2793 -60.8658 0.386065 10.827 -0.0365859 30.7096 -0.0438781 3.8761 4.79908 23.0877 -22.0322 0.0 0.0 0.0 -15.3785 -12.3404 11.9349 -6.70058 0.217325 1.00479 28.5155 26.3538 -3.96652 -4.88291 0.0 0.0 -0.0 0.0 -0.0 18.3259 25.7869 -11.4182 -40.5937 0.504967 -6.08118 37.5045 -12.6706 4.67374 7.08503 -0.0 -0.0 0.0 0.0 0.0 
2732.88540318 708.695 -1527.79024166 34.9820646553 70.4516721217 -35.2569182815 -4.19116 0.348451 0.742173 -4.1909 0.30052 0.762841 -4.18625 0.0740822 0.816544 -4.18712 0.202106 0.794599 -15.7481 21.8199 7.53121 -17.1612 37.5602 15.2559 -0.0 0.0 -0.0 3.73498 8.09966 7.56999 7.93473 -31.2265 49.6927 1.97747 -44.4041 0.807142 37.2885 -0.215791 -4.67546 0.191252 19.9404 9.20118 -0.0 0.0 -0.0 7.7997 11.9765 -15.0112 -7.12039 18.2793 -60.8658 0.386065 10.827 -0.0365859 30.7096 -0.0438781 3.8761 4.79908 23.0877 -22.0322 0.0 0.0 0.0 -15.3785 -12.3404 11.9349 -6.70058 0.217325 1.00479 28.5155 26.3538 -3.96652 -4.88291 0.0 0.0 -0.0 0.0 -0.0 18.3259 25.7869 -11.4182 -40.5937 0.504967 -6.08118 37.5045 -12.6706 4.67374 7.08503 -0.0 -0.0 0.0 0.0 0.0 
2726.43991053 706.169 -1512.20541459 33.9480529374 71.0139100045 -34.0695977757 -4.18531 0.427963 0.492015 -4.18526 0.395788 0.51825 -4.18136 0.234291 0.608553 -4.18173 0.327459 0.563916 -16.4831 22.0783 8.70399 -17.9618 37.5558 16.713 -0.0 0.0 -0.0 3.81406 9.86665 7.76804 12.0398 -30.3411 50.2715 2.30301 -48.7572 1.04377 37.008 -0.202856 -4.64201 0.145817 17.219 7.90286 -0.0 0.0 -0.0 7.56995 12.2458 -14.5059 -8.11178 18.1074 -60.3878 0.36908 10.3612 -0.0334631 30.6259 -0.0465856 3.86575 4.89557 23.0126 -22.7501 0.0 0.0 0.0 -16.6306 -11.4589 12.2676 -3.71433 0.135011 0.553947 27.1179 27.5817 -3.82855 -5.84001 0.0 0.0 -0.0 0.0 -0.0 20.5858 25.4814 -12.5375 -36.6427 0.267108 -5.52254 37.5895 -12.5501 4.68046 7.62295 -0.0 -0.0 0.0 0.0 0.0 
2716.63513785 708.852 -1510.97172814 32.3768061713 70.8079104727 -32.1872069105 -4.12091 0.417103 0.436351 -4.12089 0.388492 0.462007 -4.11751 0.2437 0.552255 -4.11779 0.327859 0.506838 -16.7045 21.9861 8.50778 -18.2346 37.5318 16.5956 -0.0 0.0 -0.0 4.45786 10.0633 8.89468 12.5575 -30.372 48.3341 2.59299 -52.0898 1.26737 36.9073 -0.198251 -4.62999 0.117591 17.5477 7.85465 -0.0 0.0 -0.0 7.31004 12.8603 -13.9186 -9.0598 17.892 -60.4149 0.333438 9.37936 -0.0273532 30.4326 -0.0527813 3.84184 4.88211 22.3595 -23.0488 0.0 0.0 0.0 -17.8242 -11.6317 12.1497 -1.20252 0.0476432 0.17839 25.6702 27.176 -3.63926 -5.79369 0.0 0.0 -0.0 0.0 -0.0 22.2018 25.646 -12.8911 -34.853 0.172192 -5.26447 37.4672 -12.7264 4.67082 7.99023 -0.0 -0.0 0.0 0.0 0.0 
